# xmcd
#
# Track frame offsets: 
#        150
#        10048
#        28445
#        39307
#        58216
#        69766
#        83060
#        97445
#        111077
#        130233
#        144876
#        166657
#
# Disc length: 2390 seconds
#
# Revision: 0
# Processed by: cddbd v1.5.2PL0 Copyright (c) Steve Scherf et al.
# Submitted via: ExactAudioCopyFreeDBPlugin 1.0
#
DISCID=9a09540c
DTITLE=Lonesome Stars - Motorbikes, Radios And Dancehalls
DYEAR=2006
DGENRE=Americana
TTITLE0=Shut It Down
TTITLE1=Motorbike
TTITLE2=Walk The Mile
TTITLE3=Billy Holiday Is On The Radio
TTITLE4=Gun Metal Blue
TTITLE5=John Hardy
TTITLE6=Goodnight Moon
TTITLE7=Love Grown Strong
TTITLE8=Mountain Top
TTITLE9=Lone Star Girls
TTITLE10=Spark
TTITLE11=Over Again
EXTD=
EXTT0=
EXTT1=
EXTT2=
EXTT3=
EXTT4=
EXTT5=
EXTT6=
EXTT7=
EXTT8=
EXTT9=
EXTT10=
EXTT11=
PLAYORDER=
